<svg width="2820" height="652" viewBox="0 0 2820 652" fill="none" xmlns="http://www.w3.org/2000/svg">
<path fill-rule="evenodd" clip-rule="evenodd" d="M185.787 15.0708C184.787 17.0344 184.092 19.0999 183.683 21.239C161.204 18.9433 139.036 21.3634 117.922 29.0555C7.19456 69.3946 -32.6227 239.447 28.9876 408.877C84.073 560.365 201.59 660.065 305.005 650.652C408.418 660.059 525.929 560.359 581.013 408.877C642.623 239.446 602.805 69.3938 492.078 29.0547C432.549 7.36748 364.643 27.5876 305 77.2514C298.336 71.7029 291.569 66.5219 284.723 61.7258C290.41 44.6663 275.877 21.6446 250.519 8.70659C223.562 -5.04669 194.581 -2.19735 185.787 15.0708ZM260.706 121.434C258.84 119.951 256.971 118.507 255.098 117.105C209.107 82.6546 168.414 76.9099 139.194 87.5549C109.974 98.2 82.4905 128.782 69.3829 184.762C56.4251 240.103 60.161 312.588 87.4324 387.585C106.662 440.467 134.053 484.863 164.474 518.387C143.034 446.9 146.594 354.757 180.034 262.796C199.962 207.993 228.06 159.968 260.706 121.434ZM305.003 587.9C299.809 587.086 294.88 585.809 290.24 584.118C261.02 573.473 233.537 542.891 220.429 486.911C207.471 431.57 211.207 359.086 238.478 284.088C255.463 237.379 278.816 197.29 305 165.465C331.184 197.29 354.537 237.379 371.522 284.089C398.793 359.086 402.529 431.571 389.571 486.912C376.464 542.892 348.98 573.474 319.76 584.119C315.122 585.809 310.194 587.086 305.003 587.9ZM445.527 518.386C466.966 446.899 463.406 354.756 429.966 262.797C410.038 207.993 381.939 159.968 349.293 121.434C351.159 119.95 353.029 118.507 354.902 117.104C400.893 82.6538 441.586 76.909 470.806 87.5541C500.026 98.1991 527.51 128.781 540.617 184.762C553.575 240.102 549.839 312.587 522.568 387.585C503.339 440.466 475.948 484.861 445.527 518.386Z" fill="url(#paint0_linear_1007_2151)"/>
<path d="M896.434 505.524C866.256 505.524 839.279 498.209 815.502 483.579C791.726 468.491 772.75 448.145 758.576 422.542C744.859 396.938 738 368.134 738 336.13C738 304.126 744.859 275.322 758.576 249.718C772.75 224.115 791.726 203.769 815.502 188.681C839.279 173.594 866.256 166.05 896.434 166.05C920.668 166.05 942.616 171.308 962.277 181.823C981.938 191.882 997.713 206.055 1009.6 224.343C1021.95 242.174 1028.81 262.977 1030.18 286.752V384.822C1028.81 408.14 1022.18 428.943 1010.29 447.231C998.399 465.519 982.624 479.921 962.963 490.437C943.302 500.495 921.125 505.524 896.434 505.524ZM906.722 447.231C927.298 447.231 945.131 442.43 960.219 432.829C975.766 423.228 987.883 410.197 996.57 393.738C1005.26 376.821 1009.6 357.619 1009.6 336.13C1009.6 313.727 1005.03 294.296 995.884 277.836C987.197 261.377 975.08 248.347 959.534 238.745C944.445 229.144 926.612 224.343 906.036 224.343C885.46 224.343 867.399 229.144 851.853 238.745C836.307 248.347 823.961 261.606 814.817 278.522C806.129 294.982 801.785 313.956 801.785 335.444C801.785 357.39 806.129 376.821 814.817 393.738C823.961 410.197 836.307 423.228 851.853 432.829C867.857 442.43 886.146 447.231 906.722 447.231ZM1067.9 498.666H1005.49V410.883L1017.15 331.329L1005.49 252.462V9H1067.9V498.666Z" fill="#0E0E0E"/>
<path d="M1296.31 505.524C1266.59 505.524 1239.62 498.209 1215.38 483.579C1191.15 468.491 1171.94 448.145 1157.77 422.542C1144.05 396.938 1137.19 368.134 1137.19 336.13C1137.19 304.126 1144.05 275.322 1157.77 249.718C1171.94 224.115 1190.92 203.769 1214.7 188.681C1238.93 173.594 1266.14 166.05 1296.31 166.05C1321 166.05 1342.95 171.308 1362.16 181.823C1381.82 191.882 1397.59 206.055 1409.48 224.343C1421.37 242.174 1428 262.977 1429.37 286.752V384.822C1428 408.14 1421.37 428.943 1409.48 447.231C1398.05 465.519 1382.5 479.921 1362.84 490.437C1343.64 500.495 1321.46 505.524 1296.31 505.524ZM1306.6 447.231C1337.24 447.231 1361.93 436.944 1380.67 416.369C1399.42 395.338 1408.79 368.592 1408.79 336.13C1408.79 313.727 1404.45 294.296 1395.76 277.836C1387.53 260.92 1375.65 247.889 1360.1 238.745C1344.55 229.144 1326.49 224.343 1305.92 224.343C1285.34 224.343 1267.05 229.144 1251.05 238.745C1235.5 248.347 1223.15 261.606 1214.01 278.522C1205.32 294.982 1200.98 313.956 1200.98 335.444C1200.98 357.39 1205.32 376.821 1214.01 393.738C1223.15 410.197 1235.73 423.228 1251.73 432.829C1267.74 442.43 1286.03 447.231 1306.6 447.231ZM1404.68 498.666V410.883L1416.34 331.329L1404.68 252.462V172.908H1467.09V498.666H1404.68Z" fill="#0E0E0E"/>
<path d="M1556.96 498.666V172.908H1618.69V498.666H1556.96ZM1618.69 312.813L1595.37 302.525C1595.37 260.92 1604.97 227.772 1624.18 203.083C1643.38 178.394 1671.04 166.05 1707.17 166.05C1723.63 166.05 1738.49 169.022 1751.75 174.965C1765.01 180.452 1777.35 189.824 1788.78 203.083L1748.32 244.918C1741.46 237.602 1733.92 232.345 1725.68 229.144C1717.45 225.944 1707.85 224.343 1696.88 224.343C1674.02 224.343 1655.27 231.659 1640.64 246.289C1626.01 260.92 1618.69 283.094 1618.69 312.813Z" fill="#0E0E0E"/>
<path d="M1832.25 498.666V9H1893.97V498.666H1832.25Z" fill="#0E0E0E"/>
<path d="M1984.97 498.666V172.908H2046.7V498.666H1984.97ZM2015.84 107.756C2004.41 107.756 1995.03 104.099 1987.72 96.7833C1980.4 89.0108 1976.74 79.4095 1976.74 67.9794C1976.74 57.0065 1980.4 47.8624 1987.72 40.5471C1995.03 32.7746 2004.41 28.8884 2015.84 28.8884C2027.27 28.8884 2036.64 32.7746 2043.96 40.5471C2051.27 47.8624 2054.93 57.0065 2054.93 67.9794C2054.93 79.4095 2051.27 89.0108 2043.96 96.7833C2036.64 104.099 2027.27 107.756 2015.84 107.756Z" fill="#0E0E0E"/>
<path d="M2368.12 498.666V308.698C2368.12 284.009 2360.35 263.663 2344.8 247.661C2329.25 231.659 2309.13 223.658 2284.44 223.658C2267.98 223.658 2253.35 227.315 2240.55 234.631C2227.75 241.946 2217.69 252.004 2210.37 264.806C2203.05 277.608 2199.4 292.238 2199.4 308.698L2174.02 294.296C2174.02 269.607 2179.51 247.661 2190.48 228.458C2201.45 209.256 2216.77 194.168 2236.43 183.195C2256.09 171.765 2278.27 166.05 2302.96 166.05C2327.65 166.05 2349.37 172.222 2368.12 184.567C2387.32 196.911 2402.41 213.142 2413.39 233.259C2424.36 252.919 2429.85 273.95 2429.85 296.353V498.666H2368.12ZM2137.67 498.666V172.908H2199.4V498.666H2137.67Z" fill="#0E0E0E"/>
<path d="M2648.53 642C2615.16 642 2585.44 635.828 2559.37 623.483C2533.77 611.139 2513.19 593.765 2497.64 571.362L2537.42 530.899C2550.68 547.816 2566.46 560.618 2584.75 569.304C2603.04 578.448 2624.76 583.021 2649.91 583.021C2683.28 583.021 2709.58 574.105 2728.78 556.274C2748.44 538.9 2758.27 515.354 2758.27 485.636V404.711L2769.25 331.329L2758.27 258.634V172.908H2820V485.636C2820 516.726 2812.68 543.93 2798.05 567.247C2783.88 590.564 2763.76 608.853 2737.7 622.112C2712.09 635.371 2682.37 642 2648.53 642ZM2648.53 493.18C2618.81 493.18 2592.07 486.093 2568.29 471.92C2544.97 457.746 2526.45 438.315 2512.73 413.626C2499.02 388.48 2492.16 360.362 2492.16 329.272C2492.16 298.182 2499.02 270.521 2512.73 246.289C2526.45 221.6 2544.97 202.169 2568.29 187.996C2592.07 173.365 2618.81 166.05 2648.53 166.05C2674.14 166.05 2696.77 171.079 2716.43 181.138C2736.1 191.196 2751.64 205.369 2763.07 223.658C2774.96 241.489 2781.36 262.52 2782.28 286.752V373.164C2780.91 396.938 2774.28 417.97 2762.39 436.258C2750.96 454.089 2735.41 468.034 2715.75 478.092C2696.09 488.151 2673.68 493.18 2648.53 493.18ZM2660.88 434.886C2681 434.886 2698.6 430.543 2713.69 421.856C2729.24 413.169 2741.13 401.053 2749.36 385.508C2757.59 369.506 2761.7 350.989 2761.7 329.958C2761.7 308.926 2757.36 290.638 2748.67 275.093C2740.44 259.091 2728.78 246.746 2713.69 238.06C2698.6 228.915 2680.77 224.343 2660.19 224.343C2639.62 224.343 2621.56 228.915 2606.01 238.06C2590.46 246.746 2578.12 259.091 2568.97 275.093C2560.29 290.638 2555.94 308.698 2555.94 329.272C2555.94 349.846 2560.29 368.134 2568.97 384.136C2578.12 400.139 2590.46 412.712 2606.01 421.856C2622.01 430.543 2640.3 434.886 2660.88 434.886Z" fill="#0E0E0E"/>
<defs>
<linearGradient id="paint0_linear_1007_2151" x1="286.895" y1="58.023" x2="189.24" y2="8.29177" gradientUnits="userSpaceOnUse">
<stop stop-color="#FB4471"/>
<stop offset="1" stop-color="#FC6462"/>
</linearGradient>
</defs>
</svg>
