<svg width="610" height="653" viewBox="0 0 610 653" fill="none" xmlns="http://www.w3.org/2000/svg">
<path fill-rule="evenodd" clip-rule="evenodd" d="M185.787 15.9379C184.787 17.9016 184.092 19.9671 183.683 22.1062C161.204 19.8105 139.036 22.2306 117.922 29.9227C7.19456 70.2618 -32.6227 240.314 28.9876 409.745C84.0729 561.232 201.589 660.932 305.004 651.519C408.417 660.926 525.929 561.227 581.013 409.744C642.623 240.313 602.805 70.261 492.078 29.9219C432.549 8.23467 364.643 28.4548 305 78.1186C298.336 72.5701 291.569 67.3891 284.723 62.593C290.41 45.5334 275.877 22.5118 250.519 9.57378C223.562 -4.1795 194.581 -1.33016 185.787 15.9379ZM260.706 122.301C258.84 120.818 256.971 119.375 255.098 117.972C209.107 83.5218 168.414 77.7771 139.194 88.4221C109.974 99.0672 82.4905 129.649 69.3829 185.63C56.4251 240.97 60.161 313.455 87.4324 388.453C106.662 441.334 134.053 485.73 164.474 519.255C143.034 447.767 146.594 355.624 180.034 263.663C199.962 208.86 228.06 160.835 260.706 122.301ZM305.003 588.768C299.809 587.953 294.88 586.676 290.24 584.986C261.02 574.341 233.537 543.758 220.429 487.778C207.471 432.438 211.207 359.953 238.478 284.955C255.463 238.246 278.816 198.157 305 166.332C331.184 198.157 354.537 238.246 371.522 284.956C398.793 359.954 402.529 432.438 389.571 487.779C376.464 543.759 348.98 574.341 319.76 584.987C315.122 586.676 310.194 587.953 305.003 588.768ZM445.527 519.253C466.966 447.766 463.406 355.624 429.966 263.664C410.038 208.861 381.939 160.835 349.293 122.301C351.159 120.818 353.029 119.374 354.902 117.971C400.893 83.521 441.586 77.7762 470.806 88.4213C500.026 99.0663 527.51 129.649 540.617 185.629C553.575 240.969 549.839 313.454 522.568 388.452C503.338 441.333 475.948 485.729 445.527 519.253Z" fill="url(#paint0_linear_1007_2137)"/>
<defs>
<linearGradient id="paint0_linear_1007_2137" x1="286.895" y1="58.8902" x2="189.24" y2="9.15896" gradientUnits="userSpaceOnUse">
<stop stop-color="#FB4471"/>
<stop offset="1" stop-color="#FC6462"/>
</linearGradient>
</defs>
</svg>
